<svg xmlns="http://www.w3.org/2000/svg" xmlns:xlink="http://www.w3.org/1999/xlink" width="49" height="50" viewBox="0 0 49 50">
    <defs>
        <path id="a" d="M1.505.001h48.077V50H1.505z"/>
    </defs>
    <g fill="none" fill-rule="evenodd" transform="translate(-1)">
        <mask id="b" fill="#fff">
            <use xlink:href="#a"/>
        </mask>
        <path fill="#FFF" d="M12.71 21.233c-1.416 0-2.564-1.194-2.564-2.664 0-1.472 1.148-2.664 2.563-2.664.944 0 1.76.536 2.204 1.324-.021.012-.044.01-.063.028l-1.958 2.062-1.089-.952a.248.248 0 0 0-.355.032.275.275 0 0 0 .03.372l1.268 1.106a.238.238 0 0 0 .161.062c.066 0 .131-.028.181-.08l2.037-2.144c.088.27.148.554.148.854 0 1.47-1.148 2.664-2.564 2.664m0 9.1c-1.415 0-2.563-1.194-2.563-2.666s1.148-2.664 2.563-2.664c1.416 0 2.564 1.192 2.564 2.664 0 1.472-1.148 2.666-2.564 2.666m0 9.098c-1.415 0-2.563-1.194-2.563-2.664 0-1.474 1.148-2.666 2.563-2.666 1.416 0 2.564 1.192 2.564 2.666 0 1.47-1.148 2.664-2.564 2.664m36.394-19.4H20.17c-.733 0-1.333-.622-1.333-1.386 0-.762.6-1.384 1.333-1.384h28.225C45.259 7.245 36.22.001 25.544.001c-13.275 0-24.039 11.19-24.039 25 0 13.806 10.764 25 24.039 25 8.661 0 16.229-4.782 20.46-11.926H20.168c-.733 0-1.333-.624-1.333-1.386 0-.762.6-1.386 1.333-1.386h27.26a25.464 25.464 0 0 0 1.81-6.25h-29.07c-.733 0-1.333-.622-1.333-1.386 0-.762.6-1.386 1.333-1.386h29.31c.015 0 .026.008.04.008.021-.43.063-.852.063-1.288 0-1.704-.167-3.364-.479-4.97" mask="url(#b)"/>
    </g>
</svg>
