<svg xmlns="http://www.w3.org/2000/svg" xmlns:xlink="http://www.w3.org/1999/xlink" width="50" height="49" viewBox="0 0 50 49">
    <defs>
        <path id="a" d="M0 .721h50v48.077H0z"/>
    </defs>
    <g fill="none" fill-rule="evenodd">
        <mask id="b" fill="#fff">
            <use xlink:href="#a"/>
        </mask>
        <path fill="#FFF" d="M22.586 46.752V15.85c0-1.164-.99-2.116-2.2-2.116h-1.144c-1.21 0-2.2.952-2.2 2.116v29.633c-1.71-.612-3.336-1.389-4.828-2.352V23.127c0-1.164-.99-2.116-2.2-2.116H8.87c-1.21 0-2.2.952-2.2 2.116V38.06C3.752 34.356 2 29.756 2 24.76 2 12.565 12.318 2.644 25 2.644s23 9.921 23 22.115c0 4.997-1.752 9.597-4.67 13.302v-9.263c0-1.162-.99-2.115-2.2-2.115h-1.146c-1.21 0-2.198.953-2.198 2.115V43.13c-1.492.963-3.118 1.74-4.828 2.352V19.738c0-1.161-.99-2.113-2.2-2.113h-1.144c-1.21 0-2.2.952-2.2 2.113v27.014c-.794.079-1.6.123-2.414.123a24.4 24.4 0 0 1-2.414-.123m7.826 1.465C41.614 45.837 50 36.246 50 24.76 50 11.482 38.806.721 25 .721 11.192.721 0 11.482 0 24.759c0 6.304 2.542 12.02 6.67 16.308a24.84 24.84 0 0 0 5.544 4.321v.002-.002a25.382 25.382 0 0 0 7.374 2.83l.116.028a25.78 25.78 0 0 0 2.728.427 26.32 26.32 0 0 0 5.136 0h.002c.926-.092 1.832-.24 2.724-.427l.118-.029" mask="url(#b)"/>
    </g>
</svg>
