<svg xmlns="http://www.w3.org/2000/svg" width="24" height="24" viewBox="0 0 24 24">
    <g fill="#FFF" fill-rule="evenodd">
        <path d="M19.756 14.992l-3.536-.148c-.026-.002-.046.015-.07.018-.027.004-.056-.004-.081.006-.013.005-.018.018-.03.023-.032.017-.055.042-.081.067-.026.026-.05.049-.067.082-.005.011-.018.017-.023.029-.01.025-.001.053-.006.08-.003.025-.02.045-.019.071l.149 3.536c.008.213.19.392.403.398a.356.356 0 0 0 .37-.377l-.108-2.591 4.41 4.41c.156.157.402.165.548.02.146-.147.137-.392-.02-.548l-4.41-4.41 2.592.107a.356.356 0 0 0 .377-.37.421.421 0 0 0-.398-.403M5.817 9.581l3.536.148c.026.002.046-.015.07-.018.028-.004.056.005.082-.006.012-.005.017-.017.028-.023.033-.017.056-.041.082-.067.026-.026.05-.049.067-.082.006-.01.018-.017.023-.028.01-.026.001-.054.006-.081.003-.025.02-.045.019-.071L9.58 5.817a.421.421 0 0 0-.403-.398.356.356 0 0 0-.37.377l.109 2.592-4.41-4.411c-.157-.156-.403-.165-.549-.02-.146.147-.137.392.02.549l4.41 4.41-2.592-.108a.356.356 0 0 0-.377.37.421.421 0 0 0 .398.403M9.581 18.756l.148-3.536c.002-.026-.015-.046-.018-.07-.004-.027.005-.056-.006-.081-.005-.013-.017-.018-.023-.03-.017-.032-.041-.055-.067-.081-.026-.026-.049-.05-.082-.067-.01-.005-.017-.018-.028-.023-.026-.01-.054-.001-.081-.006-.025-.003-.045-.02-.071-.019l-3.536.149a.421.421 0 0 0-.398.403.356.356 0 0 0 .377.37l2.592-.108-4.411 4.41c-.156.156-.165.402-.02.548.147.146.392.137.549-.02l4.41-4.41-.108 2.592a.356.356 0 0 0 .37.377.421.421 0 0 0 .403-.398M14.992 5.817l-.148 3.536c-.002.026.015.046.018.07.004.028-.004.056.006.082.005.012.018.017.023.028.017.033.042.056.067.082.026.026.049.05.082.067.011.006.017.018.029.023.025.01.053.001.08.006.025.003.045.02.071.019l3.536-.149a.421.421 0 0 0 .398-.403.356.356 0 0 0-.377-.37l-2.591.109 4.41-4.41c.157-.157.165-.403.02-.549-.147-.146-.392-.137-.548.02l-4.41 4.41.107-2.592a.356.356 0 0 0-.37-.377.421.421 0 0 0-.403.398"/>
    </g>
</svg>
